<svg xmlns="http://www.w3.org/2000/svg" width="512" height="512" viewBox="0 0 512 512" version="1.1"><path d="M 271.500 106.122 C 245.650 108.267, 194.125 113.063, 157 116.780 L 89.500 123.539 89.236 154.137 L 88.971 184.735 117.486 239.937 C 133.169 270.299, 146 295.301, 146 295.498 C 146 295.694, 136.663 296, 125.250 296.178 C 102.174 296.536, 100.110 297.052, 93.307 304.162 C 86.500 311.276, 86.046 313.627, 86.022 341.884 C 86.007 358.883, 86.400 368.628, 87.211 371.384 C 88.846 376.944, 98.056 386.154, 103.616 387.789 C 105.880 388.455, 112.907 389, 119.231 389 C 132.037 389, 134.789 387.890, 137.621 381.585 C 138.867 378.810, 138.980 379.978, 138.753 393.187 C 138.500 407.847, 138.495 407.880, 135.633 410.865 C 131.257 415.428, 128.273 416.231, 117.132 415.846 C 105.402 415.440, 102.322 413.864, 100.155 407.161 L 98.810 403 92.405 403 C 84.885 403, 84.700 403.422, 88.148 412.712 C 90.879 420.069, 96.951 426.371, 102.834 427.955 C 105.627 428.708, 114.235 429.006, 127.400 428.807 L 147.665 428.500 152.583 425.471 C 157.925 422.180, 163.332 415.068, 164.967 409.177 C 165.572 407.002, 166 391.005, 166.016 370 L 166.043 334.500 172.589 346.764 L 179.134 359.028 183.595 355.764 C 193.052 348.844, 192 347.140, 192 369.378 L 192 389 213.341 389 C 229.378 389, 235.902 388.630, 239.591 387.511 C 245.702 385.657, 246 385.657, 246 387.500 C 246 389.941, 285.667 389.673, 293.661 387.177 C 307.453 382.872, 319.093 371.303, 323.782 357.240 C 324.979 353.652, 325.501 346.387, 325.932 327.339 L 326.500 302.178 336 310.736 C 358.535 331.038, 375.285 345.090, 376.612 344.806 C 377.408 344.635, 393.751 311.272, 413.501 269.500 L 448.961 194.500 448.980 151.822 L 449 109.144 443.750 108.575 C 436.033 107.738, 328.274 101.963, 323 102.104 C 320.525 102.170, 297.350 103.978, 271.500 106.122 M 438.500 113.049 C 435.200 114.547, 420.137 121.458, 405.026 128.407 C 389.915 135.356, 376.977 140.822, 376.276 140.552 C 375.574 140.283, 375 139.157, 375 138.050 C 375 135.593, 376.301 135.893, 346.500 131.473 C 333.300 129.515, 305.175 125.260, 284 122.017 C 262.825 118.774, 239.985 115.403, 233.244 114.527 C 226.503 113.650, 220.315 112.674, 219.494 112.359 C 218.672 112.044, 218 112.284, 218 112.893 C 218 113.502, 218.142 114, 218.315 114 C 219.997 114, 372.406 137.072, 372.706 137.373 C 372.927 137.594, 350.696 145.228, 323.304 154.337 C 234.329 183.926, 185.511 199.425, 183.652 198.673 C 181.586 197.837, 154.997 176.143, 132 156.531 C 105.246 133.715, 95.404 126, 93.053 126 C 91.456 126, 91.255 128.350, 90.614 154.462 L 89.915 182.924 118.066 237.212 C 133.549 267.070, 146.854 292.512, 147.632 293.750 C 148.917 295.795, 149.818 296, 157.523 296 L 166 296 166 312.536 L 166 329.072 172.776 341.928 L 179.552 354.784 185.776 350.191 L 192 345.599 192 320.799 L 192 296 205.500 296 L 219 296 219 310.513 L 219 325.027 232.500 314.891 L 246 304.755 246 300.377 L 246 296 251.872 296 L 257.744 296 316.713 251.582 L 375.681 207.163 376.339 236.332 C 376.700 252.374, 377.042 279, 377.097 295.500 C 377.152 312, 377.491 327.844, 377.849 330.709 L 378.500 335.918 411.761 265.498 L 445.022 195.078 444.761 152.702 L 444.500 110.325 438.500 113.049 M 360.430 221.833 C 354.342 226.600, 337.322 239.892, 322.608 251.370 L 295.856 272.241 298.678 275.236 C 300.230 276.884, 305.878 282.230, 311.230 287.116 C 318.080 293.371, 321.705 296, 323.480 296 C 325.427 296, 326 296.512, 326 298.250 C 326.001 300.419, 338.395 312.101, 365 335.010 L 373.500 342.329 374.299 335.414 C 374.738 331.611, 374.839 306, 374.524 278.500 C 373.965 229.768, 373.342 212.914, 372.106 213.083 C 371.773 213.128, 366.519 217.066, 360.430 221.833 M 278.692 284.264 L 263.884 295.500 267.942 295.807 L 272 296.115 272 336.057 L 272 376 280.250 375.996 C 289.668 375.992, 293.642 374.276, 297.005 368.759 C 298.887 365.673, 298.993 363.661, 298.996 330.785 L 299 296.070 309.029 295.785 L 319.057 295.500 306.971 284.500 C 300.324 278.450, 294.574 273.394, 294.193 273.264 C 293.812 273.134, 286.836 278.084, 278.692 284.264 M 122.208 309.711 C 120.948 309.953, 118.395 311.671, 116.536 313.531 C 112.191 317.875, 111.704 321.616, 112.155 347.131 C 112.448 363.656, 112.766 366.998, 114.264 369.282 C 119.962 377.971, 132.429 377.784, 137.173 368.938 C 138.819 365.869, 139 362.731, 139 337.266 L 139 309 131.750 309.136 C 127.763 309.211, 123.469 309.470, 122.208 309.711 M 231.750 319.640 L 219 329.225 219 352.612 L 219 376 226.750 375.998 C 235.497 375.997, 240.060 374.268, 243.429 369.679 C 245.390 367.008, 245.516 365.348, 245.807 338.429 C 245.976 322.793, 245.751 310.012, 245.307 310.027 C 244.863 310.042, 238.762 314.368, 231.750 319.640" stroke="none" fill="#e9c0b3" fill-rule="evenodd"/><path d="M 46.558 35.487 C 40.922 37.502, 37.856 40.049, 35 45.089 L 32.500 49.500 32.500 256.078 L 32.500 462.657 35.500 467.501 C 37.474 470.687, 40.012 473.143, 42.920 474.679 L 47.341 477.014 256.998 476.757 L 466.656 476.500 470.258 473.752 C 472.239 472.241, 474.904 469.541, 476.180 467.752 L 478.500 464.500 478.757 256.921 L 479.014 49.341 476.679 44.921 C 475.144 42.013, 472.687 39.474, 469.501 37.500 L 464.657 34.500 257.579 34.289 C 81.581 34.110, 49.908 34.289, 46.558 35.487 M 271.500 106.122 C 245.650 108.267, 194.125 113.063, 157 116.780 L 89.500 123.539 89.236 154.137 L 88.971 184.735 117.486 239.937 C 133.169 270.299, 146 295.301, 146 295.498 C 146 295.694, 136.663 296, 125.250 296.178 C 102.174 296.536, 100.110 297.052, 93.307 304.162 C 86.500 311.276, 86.046 313.627, 86.022 341.884 C 86.007 358.883, 86.400 368.628, 87.211 371.384 C 88.846 376.944, 98.056 386.154, 103.616 387.789 C 105.880 388.455, 112.907 389, 119.231 389 C 132.037 389, 134.789 387.890, 137.621 381.585 C 138.867 378.810, 138.980 379.978, 138.753 393.187 C 138.500 407.847, 138.495 407.880, 135.633 410.865 C 131.257 415.428, 128.273 416.231, 117.132 415.846 C 105.402 415.440, 102.322 413.864, 100.155 407.161 L 98.810 403 92.405 403 C 84.885 403, 84.700 403.422, 88.148 412.712 C 90.879 420.069, 96.951 426.371, 102.834 427.955 C 105.627 428.708, 114.235 429.006, 127.400 428.807 L 147.665 428.500 152.583 425.471 C 157.925 422.180, 163.332 415.068, 164.967 409.177 C 165.572 407.002, 166 391.005, 166.016 370 L 166.043 334.500 172.589 346.764 L 179.134 359.028 183.595 355.764 C 193.052 348.844, 192 347.140, 192 369.378 L 192 389 213.341 389 C 229.378 389, 235.902 388.630, 239.591 387.511 C 245.702 385.657, 246 385.657, 246 387.500 C 246 389.941, 285.667 389.673, 293.661 387.177 C 307.453 382.872, 319.093 371.303, 323.782 357.240 C 324.979 353.652, 325.501 346.387, 325.932 327.339 L 326.500 302.178 336 310.736 C 358.535 331.038, 375.285 345.090, 376.612 344.806 C 377.408 344.635, 393.751 311.272, 413.501 269.500 L 448.961 194.500 448.980 151.822 L 449 109.144 443.750 108.575 C 436.033 107.738, 328.274 101.963, 323 102.104 C 320.525 102.170, 297.350 103.978, 271.500 106.122 M 438.500 113.049 C 435.200 114.547, 420.137 121.458, 405.026 128.407 C 389.915 135.356, 376.977 140.822, 376.276 140.552 C 375.574 140.283, 375 139.157, 375 138.050 C 375 135.593, 376.301 135.893, 346.500 131.473 C 333.300 129.515, 305.175 125.260, 284 122.017 C 262.825 118.774, 239.985 115.403, 233.244 114.527 C 226.503 113.650, 220.315 112.674, 219.494 112.359 C 218.672 112.044, 218 112.284, 218 112.893 C 218 113.502, 218.142 114, 218.315 114 C 219.997 114, 372.406 137.072, 372.706 137.373 C 372.927 137.594, 350.696 145.228, 323.304 154.337 C 234.329 183.926, 185.511 199.425, 183.652 198.673 C 181.586 197.837, 154.997 176.143, 132 156.531 C 105.246 133.715, 95.404 126, 93.053 126 C 91.456 126, 91.255 128.350, 90.614 154.462 L 89.915 182.924 118.066 237.212 C 133.549 267.070, 146.854 292.512, 147.632 293.750 C 148.917 295.795, 149.818 296, 157.523 296 L 166 296 166 312.536 L 166 329.072 172.776 341.928 L 179.552 354.784 185.776 350.191 L 192 345.599 192 320.799 L 192 296 205.500 296 L 219 296 219 310.513 L 219 325.027 232.500 314.891 L 246 304.755 246 300.377 L 246 296 251.872 296 L 257.744 296 316.713 251.582 L 375.681 207.163 376.339 236.332 C 376.700 252.374, 377.042 279, 377.097 295.500 C 377.152 312, 377.491 327.844, 377.849 330.709 L 378.500 335.918 411.761 265.498 L 445.022 195.078 444.761 152.702 L 444.500 110.325 438.500 113.049 M 360.430 221.833 C 354.342 226.600, 337.322 239.892, 322.608 251.370 L 295.856 272.241 298.678 275.236 C 300.230 276.884, 305.878 282.230, 311.230 287.116 C 318.080 293.371, 321.705 296, 323.480 296 C 325.427 296, 326 296.512, 326 298.250 C 326.001 300.419, 338.395 312.101, 365 335.010 L 373.500 342.329 374.299 335.414 C 374.738 331.611, 374.839 306, 374.524 278.500 C 373.965 229.768, 373.342 212.914, 372.106 213.083 C 371.773 213.128, 366.519 217.066, 360.430 221.833 M 278.692 284.264 L 263.884 295.500 267.942 295.807 L 272 296.115 272 336.057 L 272 376 280.250 375.996 C 289.668 375.992, 293.642 374.276, 297.005 368.759 C 298.887 365.673, 298.993 363.661, 298.996 330.785 L 299 296.070 309.029 295.785 L 319.057 295.500 306.971 284.500 C 300.324 278.450, 294.574 273.394, 294.193 273.264 C 293.812 273.134, 286.836 278.084, 278.692 284.264 M 122.208 309.711 C 120.948 309.953, 118.395 311.671, 116.536 313.531 C 112.191 317.875, 111.704 321.616, 112.155 347.131 C 112.448 363.656, 112.766 366.998, 114.264 369.282 C 119.962 377.971, 132.429 377.784, 137.173 368.938 C 138.819 365.869, 139 362.731, 139 337.266 L 139 309 131.750 309.136 C 127.763 309.211, 123.469 309.470, 122.208 309.711 M 231.750 319.640 L 219 329.225 219 352.612 L 219 376 226.750 375.998 C 235.497 375.997, 240.060 374.268, 243.429 369.679 C 245.390 367.008, 245.516 365.348, 245.807 338.429 C 245.976 322.793, 245.751 310.012, 245.307 310.027 C 244.863 310.042, 238.762 314.368, 231.750 319.640" stroke="none" fill="#050608" fill-rule="evenodd"/></svg>